<svg width="26" height="26" viewBox="0 0 26 26" fill="none" xmlns="http://www.w3.org/2000/svg">
<path d="M13.0234 0.0974121C5.85795 0.0974121 0.0474854 6.00586 0.0474854 13.2949C0.0474854 19.126 3.76549 24.073 8.92122 25.8181C9.56972 25.9403 9.8078 25.5318 9.8078 25.1832C9.8078 24.8685 9.79577 23.8289 9.79018 22.7261C6.18026 23.5245 5.41853 21.1689 5.41853 21.1689C4.82826 19.6435 3.97778 19.2379 3.97778 19.2379C2.80048 18.4187 4.06653 18.4356 4.06653 18.4356C5.36954 18.5284 6.05563 19.7956 6.05563 19.7956C7.21296 21.8132 9.09119 21.2299 9.83165 20.8927C9.94811 20.0399 10.2844 19.4573 10.6555 19.1279C7.77335 18.7942 4.7436 17.6626 4.7436 12.6056C4.7436 11.1647 5.25049 9.98737 6.08056 9.06313C5.94583 8.7305 5.50168 7.38839 6.20626 5.57051C6.20626 5.57051 7.2959 5.21581 9.77557 6.92332C10.8106 6.63091 11.9207 6.48426 13.0234 6.47923C14.1262 6.48426 15.2371 6.63091 16.2741 6.92332C18.7507 5.21581 19.8389 5.57051 19.8389 5.57051C20.5452 7.38839 20.1008 8.7305 19.9661 9.06313C20.7981 9.98737 21.3015 11.1647 21.3015 12.6056C21.3015 17.6746 18.266 18.7907 15.3765 19.1174C15.8419 19.527 16.2567 20.3302 16.2567 21.5615C16.2567 23.3271 16.2416 24.7483 16.2416 25.1832C16.2416 25.5344 16.4752 25.946 17.1329 25.8164C22.2859 24.0693 25.9991 19.124 25.9991 13.2949C25.9991 6.00586 20.1895 0.0974121 13.0234 0.0974121Z" fill="#DADADA"/>
<path d="M4.96214 19.0461C4.93356 19.1119 4.83214 19.1314 4.73974 19.0863C4.64562 19.0433 4.59276 18.9539 4.62328 18.8881C4.65121 18.8206 4.75285 18.802 4.84675 18.8468C4.94108 18.8901 4.9948 18.9804 4.96214 19.0461Z" fill="black"/>
<path d="M5.48776 19.6424C5.42588 19.7008 5.3049 19.6737 5.22282 19.5815C5.13794 19.4895 5.12204 19.3664 5.18479 19.3072C5.24861 19.2488 5.36593 19.2761 5.45102 19.3682C5.53589 19.4613 5.55244 19.5834 5.48776 19.6424Z" fill="black"/>
<path d="M5.99931 20.4025C5.9198 20.4587 5.7898 20.406 5.70944 20.2886C5.62994 20.1713 5.62994 20.0305 5.71116 19.9741C5.79174 19.9177 5.9198 19.9685 6.00124 20.0849C6.08053 20.204 6.08053 20.345 5.99931 20.4025Z" fill="black"/>
<path d="M6.70033 21.1368C6.6292 21.2165 6.47772 21.1951 6.36684 21.0863C6.25339 20.9798 6.2218 20.8288 6.29314 20.7491C6.36512 20.6691 6.51747 20.6916 6.6292 20.7995C6.7418 20.9058 6.77618 21.0579 6.70033 21.1368Z" fill="black"/>
<path d="M7.66717 21.5632C7.6358 21.6665 7.4899 21.7135 7.34292 21.6696C7.19616 21.6244 7.10011 21.5033 7.12977 21.3988C7.16028 21.2948 7.30682 21.2458 7.45487 21.2928C7.60142 21.3378 7.69768 21.458 7.66717 21.5632Z" fill="black"/>
<path d="M8.72911 21.6423C8.73276 21.7512 8.60814 21.8414 8.45386 21.8432C8.29872 21.8469 8.17323 21.7588 8.17151 21.6517C8.17151 21.5418 8.29334 21.4524 8.44848 21.4498C8.60276 21.4467 8.72911 21.5341 8.72911 21.6423Z" fill="black"/>
<path d="M9.71731 21.4712C9.73579 21.5774 9.62856 21.6865 9.47536 21.7153C9.32473 21.7435 9.18527 21.678 9.16615 21.5726C9.14745 21.4638 9.25661 21.3547 9.40702 21.3265C9.56045 21.2994 9.69775 21.3633 9.71731 21.4712Z" fill="black"/>
</svg>
