<svg width="37" height="24" viewBox="0 0 37 24" fill="none" xmlns="http://www.w3.org/2000/svg">
<path d="M17.3951 13.8497C17.3951 8.83028 14.7119 6.49414 11.1329 6.49414C8.24516 6.49414 6.95228 8.08027 6.23041 9.19298V0H0.790833C0.86252 1.53342 0.790833 23.22 0.790833 23.22H6.23041V14.0935C6.23041 13.6051 6.26571 13.1179 6.40952 12.7682C6.80261 11.7925 7.69762 10.7823 9.20024 10.7823C11.1691 10.7823 11.9562 12.2808 11.9562 14.4768V23.2196H17.3949L17.3951 13.8497Z" fill="#DADADA"/>
<path d="M36.9994 13.8497C36.9994 8.83028 34.3162 6.49414 30.7371 6.49414C27.8494 6.49414 26.5565 8.08027 25.8347 9.19298V0H20.3951C20.4668 1.53342 20.3951 23.22 20.3951 23.22H25.8347V14.0935C25.8347 13.6051 25.87 13.1179 26.0138 12.7682C26.4069 11.7925 27.3019 10.7823 28.8045 10.7823C30.7734 10.7823 31.5604 12.2808 31.5604 14.4768V23.2196H36.9991L36.9994 13.8497Z" fill="#DADADA"/>
</svg>
