<svg width="37" height="26" viewBox="0 0 37 26" fill="none" xmlns="http://www.w3.org/2000/svg">
<path d="M17.3958 15.0427C17.3958 9.59086 14.7126 7.0535 11.1335 7.0535C8.24583 7.0535 6.95295 8.77625 6.23108 9.98479V0H0.791504C0.863192 1.6655 0.791504 25.22 0.791504 25.22H6.23108V15.3074C6.23108 14.7769 6.26638 14.2477 6.41019 13.8679C6.80328 12.8082 7.69829 11.711 9.20091 11.711C11.1698 11.711 11.9569 13.3385 11.9569 15.7237V25.2195H17.3956L17.3958 15.0427Z" fill="#DADADA"/>
<path d="M37.0002 15.0427C37.0002 9.59086 34.317 7.0535 30.7379 7.0535C27.8502 7.0535 26.5573 8.77625 25.8355 9.98479V0H20.3959C20.4676 1.6655 20.3959 25.22 20.3959 25.22H25.8355V15.3074C25.8355 14.7769 25.8708 14.2477 26.0146 13.8679C26.4076 12.8082 27.3027 11.711 28.8053 11.711C30.7742 11.711 31.5612 13.3385 31.5612 15.7237V25.2195H36.9999L37.0002 15.0427Z" fill="#DADADA"/>
</svg>
