<svg width="788" height="810" viewBox="0 0 788 810" fill="none" xmlns="http://www.w3.org/2000/svg">
<path d="M242.838 699.143L242.384 699.167L241.968 699.35L113.282 755.737C79.8191 623.867 93.9229 484.719 153.38 360.791C212.998 236.527 314.7 134.892 441.956 72.405L644.624 304.214L644.624 454.276L644.624 454.887L644.906 455.429L724.576 608.582L608.236 679.537L242.838 699.143Z" stroke="white" stroke-width="5"/>
<path d="M534.627 480.785L600.253 679.094L242.831 699.143L242.381 699.168L241.968 699.349L113.282 755.737C79.8191 623.867 93.9229 484.719 153.38 360.79C212.998 236.526 314.7 134.892 441.956 72.4049L644.624 304.214L644.624 452.292L536.431 477.565L533.767 478.187L534.627 480.785Z" stroke="white" stroke-width="5"/>
<path d="M382.52 436.314L414.682 690.144L242.841 699.143L242.386 699.167L241.968 699.349L113.282 755.737C79.8191 623.867 93.9229 484.719 153.38 360.79C212.998 236.526 314.7 134.892 441.956 72.4049L644.624 304.214L644.624 452.249L535.083 475.427L385.674 433.593L382.046 432.577L382.52 436.314Z" stroke="white" stroke-width="5"/>
<path d="M381.583 428.27L121.478 438.455C159.077 299.283 285.073 137.317 441.896 69.0612L644.623 300.939L644.623 449.017L537.075 474.139L382.39 428.371L381.995 428.254L381.583 428.27Z" stroke="white" stroke-width="5"/>
<path d="M643.072 302.44L497.923 371.743L495.884 372.717L496.647 374.843L532.983 476.204L382.39 431.646L381.995 431.529L381.583 431.545L121.478 441.73C159.077 302.559 285.073 140.593 441.896 72.3368L643.072 302.44Z" stroke="white" stroke-width="5"/>
</svg>
