<svg width="742" height="745" viewBox="0 0 742 745" fill="none" xmlns="http://www.w3.org/2000/svg">
<path d="M257 373L257 372.068L256.39 371.363L55.9782 139.871C149.067 95.0758 252.136 72.8158 356.065 75.0868C460.412 77.3669 562.35 104.304 652.79 153.473L606.223 317.369L337.622 674.567L257 521.382L257 373Z" stroke="white" stroke-width="5"/>
<path d="M377.02 623.296L428.454 357.474L429.072 354.281L425.827 354.505L255 366.321L255 275L255 274.929L254.996 274.859L248.505 160.028L254.829 80.2478C283.332 76.9724 285.098 76.9333 302.504 76.5481C312.087 76.336 326.412 76.019 352.549 74.9993C446.005 75.0097 562.182 104.282 652.79 153.473L606.222 317.371L377.02 623.296Z" stroke="white" stroke-width="5"/>
<path d="M494 316L493.341 316L492.768 316.324L425.249 354.552L254.918 368.297L248.503 160.06L254.83 80.2476C283.332 76.9721 285.098 76.933 302.504 76.5479C312.087 76.3358 326.411 76.0189 352.548 74.9991C446.002 75.0091 562.177 104.28 652.785 153.471L606.117 316L494 316Z" stroke="white" stroke-width="5"/>
</svg>
