<svg width="40" height="40" viewBox="0 0 40 40" fill="none" xmlns="http://www.w3.org/2000/svg">
<path d="M28.6958 29.698C28.2457 30.148 27.6353 30.4009 26.9988 30.4009C26.3623 30.4009 25.7519 30.148 25.3018 29.698L19.9998 23.638L14.6978 29.696C14.4756 29.9218 14.2109 30.1014 13.9189 30.2245C13.627 30.3475 13.3135 30.4115 12.9967 30.4128C12.6799 30.4141 12.366 30.3526 12.073 30.232C11.7801 30.1113 11.5139 29.9339 11.2899 29.7099C11.0659 29.4858 10.8884 29.2197 10.7678 28.9267C10.6471 28.6338 10.5857 28.3198 10.587 28.003C10.5883 27.6862 10.6523 27.3728 10.7753 27.0808C10.8983 26.7889 11.0779 26.5242 11.3038 26.302L16.8198 20.002L11.3018 13.698C11.0759 13.4758 10.8963 13.2111 10.7733 12.9191C10.6503 12.6272 10.5863 12.3137 10.585 11.9969C10.5837 11.6801 10.6451 11.3662 10.7658 11.0732C10.8864 10.7803 11.0639 10.5141 11.2879 10.2901C11.5119 10.0661 11.7781 9.88863 12.071 9.76798C12.364 9.64734 12.6779 9.58589 12.9947 9.58718C13.3115 9.58847 13.625 9.65247 13.9169 9.7755C14.2089 9.89852 14.4736 10.0781 14.6958 10.304L19.9998 16.366L25.3018 10.304C25.524 10.0781 25.7887 9.89852 26.0806 9.7755C26.3726 9.65247 26.686 9.58847 27.0028 9.58718C27.3196 9.58589 27.6336 9.64734 27.9265 9.76798C28.2195 9.88863 28.4856 10.0661 28.7097 10.2901C28.9337 10.5141 29.1111 10.7803 29.2318 11.0732C29.3524 11.3662 29.4139 11.6801 29.4126 11.9969C29.4113 12.3137 29.3473 12.6272 29.2243 12.9191C29.1012 13.2111 28.9216 13.4758 28.6958 13.698L23.1798 20.002L28.6958 26.302C28.9189 26.5249 29.0959 26.7896 29.2167 27.0809C29.3375 27.3723 29.3997 27.6846 29.3997 28C29.3997 28.3154 29.3375 28.6277 29.2167 28.919C29.0959 29.2104 28.9189 29.4751 28.6958 29.698Z" fill="white"/>
</svg>
