<svg width="24" height="24" viewBox="0 0 24 24" fill="none" xmlns="http://www.w3.org/2000/svg">
<path d="M11.6309 0.0870361C5.23155 0.0870361 0.0423584 5.36373 0.0423584 11.8734C0.0423584 17.081 3.36282 21.4991 7.96729 23.0576C8.54644 23.1667 8.75907 22.8019 8.75907 22.4906C8.75907 22.2095 8.74832 21.2811 8.74333 20.2962C5.5194 21.0092 4.83911 18.9055 4.83911 18.9055C4.31196 17.5432 3.55242 17.1809 3.55242 17.1809C2.50099 16.4494 3.63167 16.4644 3.63167 16.4644C4.79536 16.5474 5.4081 17.679 5.4081 17.679C6.44168 19.4809 8.11908 18.96 8.78037 18.6588C8.88438 17.8972 9.18471 17.3769 9.51612 17.0827C6.94215 16.7847 4.23635 15.7741 4.23635 11.2578C4.23635 9.97096 4.68904 8.91953 5.43036 8.09411C5.31004 7.79705 4.91338 6.59844 5.54262 4.97494C5.54262 4.97494 6.51575 4.65816 8.73028 6.1831C9.65467 5.92195 10.646 5.79098 11.6309 5.78649C12.6157 5.79098 13.6078 5.92195 14.5339 6.1831C16.7458 4.65816 17.7176 4.97494 17.7176 4.97494C18.3484 6.59844 17.9515 7.79705 17.8312 8.09411C18.5742 8.91953 19.0238 9.97096 19.0238 11.2578C19.0238 15.7848 16.3129 16.7816 13.7324 17.0734C14.148 17.4391 14.5184 18.1564 14.5184 19.2561C14.5184 20.8329 14.505 22.1022 14.505 22.4906C14.505 22.8043 14.7136 23.1718 15.301 23.056C19.9029 21.4958 23.2192 17.0792 23.2192 11.8734C23.2192 5.36373 18.0308 0.0870361 11.6309 0.0870361Z" fill="white"/>
<path d="M4.43157 17.0098C4.40605 17.0685 4.31547 17.0859 4.23295 17.0457C4.1489 17.0072 4.10169 16.9274 4.12894 16.8686C4.15389 16.8083 4.24466 16.7917 4.32852 16.8318C4.41276 16.8704 4.46074 16.951 4.43157 17.0098Z" fill="black"/>
<path d="M4.90087 17.5422C4.8456 17.5943 4.73756 17.5701 4.66426 17.4877C4.58846 17.4055 4.57425 17.2956 4.63029 17.2427C4.68728 17.1906 4.79206 17.215 4.86805 17.2972C4.94386 17.3803 4.95863 17.4895 4.90087 17.5422Z" fill="black"/>
<path d="M5.35783 18.221C5.28683 18.2712 5.17073 18.2242 5.09896 18.1194C5.02796 18.0145 5.02796 17.8888 5.1005 17.8385C5.17246 17.7881 5.28683 17.8334 5.35956 17.9374C5.43037 18.0438 5.43037 18.1697 5.35783 18.221Z" fill="black"/>
<path d="M5.98378 18.8768C5.92026 18.948 5.78497 18.9289 5.68595 18.8317C5.58463 18.7367 5.55642 18.6018 5.62013 18.5306C5.68442 18.4591 5.82047 18.4792 5.92026 18.5756C6.02082 18.6705 6.05152 18.8063 5.98378 18.8768Z" fill="black"/>
<path d="M6.84729 19.2577C6.81928 19.35 6.68898 19.392 6.55772 19.3527C6.42665 19.3123 6.34087 19.2042 6.36735 19.1109C6.3946 19.018 6.52548 18.9743 6.6577 19.0162C6.78857 19.0564 6.87454 19.1638 6.84729 19.2577Z" fill="black"/>
<path d="M7.79571 19.3283C7.79897 19.4255 7.68767 19.5061 7.54989 19.5076C7.41133 19.511 7.29926 19.4323 7.29773 19.3367C7.29773 19.2385 7.40654 19.1587 7.54509 19.1563C7.68287 19.1536 7.79571 19.2317 7.79571 19.3283Z" fill="black"/>
<path d="M8.67829 19.1754C8.6948 19.2703 8.59904 19.3677 8.46221 19.3934C8.32769 19.4186 8.20315 19.3601 8.18607 19.266C8.16937 19.1688 8.26686 19.0714 8.40119 19.0462C8.5382 19.022 8.66083 19.079 8.67829 19.1754Z" fill="black"/>
</svg>
