<svg width="23" height="24" viewBox="0 0 23 24" fill="none" xmlns="http://www.w3.org/2000/svg">
<path d="M11.8698 4.4892C14.0468 4.4892 15.5152 5.4309 16.3525 6.21779L19.6244 3.0186C17.6149 1.1481 15 0 11.8698 0C7.33556 0 3.41963 2.6058 1.51318 6.39839L5.26166 9.31379C6.202 6.51449 8.80404 4.4892 11.8698 4.4892Z" fill="#DADADA"/>
<path d="M22.9994 11.868C22.9994 10.9134 22.9221 10.2168 22.7546 9.49438H11.8699V13.803H18.259C18.1302 14.8737 17.4346 16.4862 15.8889 17.5698L19.5472 20.4078C21.737 18.3825 22.9994 15.4026 22.9994 11.868Z" fill="#DADADA"/>
<path d="M5.27458 13.9062C5.02984 13.1838 4.88814 12.4098 4.88814 11.61C4.88814 10.8102 5.02984 10.0362 5.2617 9.31383L1.51322 6.39844C0.727459 7.97224 0.276611 9.73953 0.276611 11.61C0.276611 13.4805 0.727459 15.2478 1.51322 16.8216L5.27458 13.9062Z" fill="#DADADA"/>
<path d="M11.8699 23.22C15 23.22 17.6278 22.188 19.5472 20.4078L15.8889 17.5698C14.9099 18.2535 13.596 18.7308 11.8699 18.7308C8.8041 18.7308 6.20206 16.7055 5.2746 13.9062L1.52612 16.8216C3.43257 20.6142 7.33562 23.22 11.8699 23.22Z" fill="#DADADA"/>
</svg>
