<svg width="24" height="24" viewBox="0 0 24 24" fill="none" xmlns="http://www.w3.org/2000/svg">
<path fill-rule="evenodd" clip-rule="evenodd" d="M16.8525 6.75886C16.005 5.97942 14.5186 5.04664 12.315 5.04664C9.21187 5.04664 6.57809 7.05275 5.62627 9.82553L5.6263 9.82556C5.39161 10.5411 5.24818 11.3078 5.24818 12.1C5.24818 12.8922 5.39161 13.6589 5.63934 14.3744L1.83208 17.2622C1.03673 15.7033 0.580383 13.9528 0.580383 12.1C0.580383 10.2472 1.03673 8.49667 1.83208 6.93778L1.83205 6.93775C3.76176 3.18109 7.72548 0.599976 12.315 0.599976C15.4834 0.599976 18.1302 1.7372 20.1643 3.58998L16.8525 6.75886ZM23.3327 10.0044C23.5022 10.7199 23.5804 11.41 23.5804 12.3555C23.5804 15.8566 22.3026 18.8083 20.0861 20.8144L16.3831 18.0033C17.9478 16.9299 18.6518 15.3327 18.7822 14.2722H12.3151V10.0044H23.3327ZM20.086 20.8145C18.1433 22.5778 15.4834 23.6001 12.3151 23.6001C7.72548 23.6001 3.7748 21.019 1.8451 17.2623L5.63932 14.3745C6.57809 17.1473 9.21188 19.1534 12.3151 19.1534C14.0622 19.1534 15.3922 18.6806 16.3831 18.0034L20.086 20.8145Z" fill="#DADADA"/>
</svg>
