<svg width="790" height="813" viewBox="0 0 790 813" fill="none" xmlns="http://www.w3.org/2000/svg">
<path d="M252.781 582.509L96.6179 596.242L362.998 242.002L363.28 241.627L363.407 241.176L410.059 75.1902C524.353 137.59 612.886 231.636 667.351 346.297C721.895 461.123 737.249 589.633 711.291 713.732L482.686 669.586L253.888 582.662L253.352 582.459L252.781 582.509Z" stroke="white" stroke-width="5"/>
<path d="M458.492 455.205L458.544 454.57L458.286 453.988L363.65 240.31L410.059 75.1902C524.353 137.59 612.886 231.636 667.351 346.297C721.895 461.123 737.249 589.633 711.291 713.732L483.642 669.77L446.552 600.47L458.492 455.205Z" stroke="white" stroke-width="5"/>
<path d="M364.642 245.072L414.252 81.5053C528.189 143.615 589.853 217.577 622.899 268.854C624.55 271.417 626.185 273.942 627.807 276.445C640.448 295.961 652.239 314.164 664.189 338.779C677.433 366.062 690.893 401.271 705.799 454.813L636.497 461.86L636.257 461.884L636.025 461.954L548.525 488.454L548.493 488.463L548.462 488.474L253.739 586.381L97.868 600.089L364.248 245.849L364.514 245.496L364.642 245.072Z" stroke="white" stroke-width="5"/>
<path d="M294.592 462.28L103.583 592.487L364.248 245.848L364.514 245.494L364.642 245.071L414.252 81.504C528.189 143.613 589.853 217.575 622.898 268.853C641.608 297.886 647.099 306.127 651.742 314.821C653.753 318.587 655.605 322.439 658.304 328.104L465.205 454.531L295.892 461.848L295.18 461.879L294.592 462.28Z" stroke="white" stroke-width="5"/>
<path d="M364.244 245.852L364.513 245.497L364.642 245.071L414.252 81.5039C528.189 143.613 589.853 217.575 622.898 268.853C641.608 297.886 647.099 306.126 651.742 314.821C653.753 318.587 655.605 322.439 658.304 328.104L465.205 454.531L297.68 461.771L264.836 377.394L364.244 245.852Z" stroke="white" stroke-width="5"/>
</svg>
