<svg width="795" height="760" viewBox="0 0 795 760" fill="none" xmlns="http://www.w3.org/2000/svg">
<path d="M652.802 538.969L652.323 539.943L652.707 540.958L697.722 659.891C552.692 666.217 410.114 624.683 293.946 542.226C177.456 459.54 94.7027 340.8 59.5912 206.088L188.978 149.336L550.192 129.655L550.814 129.621L551.348 129.299L670.113 57.5595L723.693 394.934L652.802 538.969Z" stroke="white" stroke-width="5"/>
<path d="M479.983 361.477L480.603 362.324L481.642 362.474L722.524 397.308L652.802 538.969L652.323 539.943L652.707 540.958L697.722 659.891C552.692 666.217 410.114 624.683 293.946 542.226C177.466 459.547 94.7168 340.821 59.6001 206.122L187.586 152.465L357.058 140.642L375.568 218.578L375.684 219.069L375.983 219.477L479.983 361.477Z" stroke="white" stroke-width="5"/>
<path d="M479.983 361.477L480.603 362.324L481.642 362.474L722.524 397.308L652.802 538.969L652.323 539.943L652.707 540.958L697.722 659.891C552.692 666.217 410.114 624.683 293.946 542.226C254.098 513.941 176.042 452.475 123.319 359.106L261.939 362.499L263.162 362.529L263.936 361.582L377.892 222.084L479.983 361.477Z" stroke="white" stroke-width="5"/>
</svg>
