<svg width="809" height="763" viewBox="0 0 809 763" fill="none" xmlns="http://www.w3.org/2000/svg">
<path d="M160.288 439.966L160.651 439.244L160.522 438.445L106.397 103.26L266.652 89.5383L424.115 148.337L424.125 148.341L494.115 174.837L494.315 174.913L494.526 174.954L724.522 219.351C696.159 350.784 622.932 469.824 516.303 557.698C409.453 645.752 275.192 697.457 134.75 704.652L87.6495 584.52L160.288 439.966Z" stroke="white" stroke-width="5"/>
<path d="M427.26 203.931L395.082 135.898L424.015 148.297L424.064 148.318L424.115 148.337L494.115 174.837L494.315 174.913L494.526 174.954L724.522 219.351C696.159 350.784 622.932 469.824 516.303 557.698C409.453 645.752 275.192 697.457 134.75 704.652L87.6495 584.52L159.596 441.344L264 441.344L265.314 441.344L266.059 440.262L427.059 206.418L427.875 205.232L427.26 203.931Z" stroke="white" stroke-width="5"/>
<path d="M417.808 508.803L291.826 577.165L224.457 216.92L224.313 216.147L223.752 215.596L109.131 103.026L266.652 89.5383L424.115 148.337L424.125 148.341L494.115 174.837L494.315 174.913L494.526 174.954L724.522 219.351C696.163 350.764 622.954 469.789 516.35 557.658C482.568 582.795 463.681 596.441 453.241 601.858C450.65 603.202 448.723 603.961 447.309 604.288C445.875 604.619 445.292 604.433 445.102 604.333C444.971 604.264 444.669 604.052 444.401 603.125C444.125 602.167 443.985 600.77 443.986 598.83C443.988 596.468 444.204 593.565 444.454 590.214C445.836 571.637 448.24 539.317 420.846 509.314L419.527 507.87L417.808 508.803Z" stroke="white" stroke-width="5"/>
</svg>
