<svg width="29" height="26" viewBox="0 0 29 26" fill="none" xmlns="http://www.w3.org/2000/svg">
<path fill-rule="evenodd" clip-rule="evenodd" d="M6.97234 3.11418C6.93257 1.45494 5.6416 0.191162 3.54526 0.191162C1.44891 0.191162 0.0783958 1.45494 0.0783958 3.11418C0.0783958 4.73905 1.40841 6.03921 3.46571 6.03921H3.50487C5.6416 6.03921 6.97234 4.73905 6.97234 3.11418ZM6.5687 8.34888H0.440718V25.2714H6.5687V8.34888ZM21.613 7.95166C25.6455 7.95166 28.6686 10.3708 28.6686 15.5687L28.6683 25.2715H22.5406V16.218C22.5406 13.9439 21.6538 12.3922 19.4355 12.3922C17.7425 12.3922 16.7341 13.4383 16.2912 14.4487C16.1292 14.8108 16.0894 15.3153 16.0894 15.8211V25.272H9.96071C9.96071 25.272 10.0415 9.9374 9.96071 8.34948H16.0894V10.7464C16.9028 9.59416 18.3594 7.95166 21.613 7.95166Z" fill="white"/>
</svg>
